<?xml version="1.0" standalone="no"?>
<!DOCTYPE svg PUBLIC "-//W3C//DTD SVG 20010904//EN"
 "http://www.w3.org/TR/2001/REC-SVG-20010904/DTD/svg10.dtd">
<svg version="1.0" xmlns="http://www.w3.org/2000/svg"
 width="1280.000000pt" height="984.000000pt" viewBox="0 0 1280.000000 984.000000"
 preserveAspectRatio="xMidYMid meet">
<metadata>
Created by potrace 1.15, written by Peter Selinger 2001-2017
</metadata>
<g transform="translate(0.000000,984.000000) scale(0.100000,-0.100000)"
fill="#000000" stroke="none">
<path d="M2310 9403 c-690 -51 -1212 -310 -1407 -697 -54 -107 -103 -329 -103
-468 0 -31 -9 -115 -20 -188 -10 -72 -26 -220 -35 -328 -9 -108 -22 -246 -31
-307 -18 -128 -89 -462 -139 -650 -71 -269 -91 -527 -81 -1075 6 -396 5 -386
80 -726 26 -122 40 -221 56 -405 25 -296 38 -390 96 -674 65 -315 119 -525
157 -608 44 -93 218 -355 287 -430 191 -208 577 -415 958 -513 205 -53 340
-67 622 -68 410 -1 590 38 924 199 169 81 280 158 392 270 78 78 121 140 228
327 37 65 69 118 72 118 2 0 72 -15 156 -32 149 -32 159 -33 398 -32 207 0
266 4 380 23 226 38 203 38 230 -2 13 -19 29 -33 36 -30 13 5 36 -29 33 -50
-3 -27 2 -37 21 -37 15 0 20 -7 20 -28 0 -35 25 -70 58 -83 20 -8 23 -12 13
-19 -11 -6 -7 -17 18 -49 18 -22 37 -40 43 -38 6 1 12 -6 13 -16 2 -10 10 -26
17 -35 272 -331 568 -569 903 -727 184 -87 196 -92 330 -133 199 -61 234 -70
309 -82 38 -6 73 -13 76 -15 4 -3 23 -6 43 -9 52 -6 187 -75 197 -100 5 -11
29 -68 54 -126 24 -58 48 -122 51 -143 4 -20 11 -40 16 -43 5 -3 9 -14 9 -24
0 -21 118 -383 145 -445 43 -98 56 -123 89 -170 37 -52 130 -136 175 -159 42
-21 176 -37 224 -27 79 18 238 16 281 -2 43 -19 62 -19 345 7 85 7 168 10 185
7 17 -4 211 -1 431 6 573 20 844 36 906 53 20 5 63 10 95 10 33 1 111 7 174
15 63 8 162 19 220 25 58 7 116 16 130 21 14 5 52 13 85 18 33 6 101 17 150
26 50 8 108 18 130 22 73 12 118 48 174 143 56 95 87 175 124 325 34 132 47
204 57 295 4 41 10 89 13 107 3 17 11 60 17 95 6 35 18 95 26 133 9 39 18 84
20 100 3 17 9 53 15 81 5 28 12 70 15 95 2 24 9 64 14 89 13 59 41 221 51 290
22 153 30 220 35 270 2 30 11 109 19 175 8 66 17 149 19 185 3 36 14 137 25
225 18 139 20 196 16 430 -6 312 -6 595 0 745 19 480 13 608 -43 895 -6 28
-15 84 -22 125 -6 41 -16 100 -21 130 -5 30 -14 179 -19 330 -9 275 -24 464
-40 530 -5 19 -21 112 -35 205 -38 243 -65 386 -80 415 -29 56 -48 64 -178 73
-139 9 -553 21 -702 20 -55 0 -140 0 -190 -1 -49 0 -117 -1 -150 -1 -60 0
-144 -15 -245 -45 -138 -41 -196 -46 -544 -47 -252 -1 -348 -4 -376 -14 -81
-28 -242 -45 -635 -65 -225 -11 -477 -25 -560 -30 -362 -23 -455 -30 -540 -40
-49 -6 -166 -15 -260 -21 -282 -17 -347 -25 -394 -48 -70 -36 -89 -103 -111
-401 -8 -108 -12 -709 -6 -955 l1 -50 -45 -2 c-44 -1 -216 13 -275 23 -16 3
-82 8 -146 11 l-116 5 -129 127 c-243 238 -469 368 -789 451 -66 17 -123 35
-127 39 -5 4 19 166 52 361 103 617 138 903 147 1210 5 171 3 219 -11 290 -67
331 -377 655 -869 908 -211 109 -416 191 -647 259 -264 77 -695 144 -1120 173
-133 9 -554 11 -660 3z m3046 -3852 c93 -32 217 -101 319 -176 115 -86 114
-80 36 -149 -180 -160 -345 -411 -424 -641 -32 -95 -70 -272 -64 -297 3 -10 2
-20 -2 -22 -21 -14 3 -427 28 -475 5 -9 12 -35 15 -57 7 -37 5 -42 -16 -48
-44 -11 -223 -6 -288 10 -114 27 -184 84 -210 173 -8 29 -3 49 40 150 107 254
250 644 288 781 42 153 63 260 112 560 17 102 33 193 36 203 7 24 36 21 130
-12z m1454 -508 c104 -13 242 -81 254 -126 3 -12 6 -44 6 -72 1 -27 6 -72 11
-100 12 -60 28 -165 33 -220 3 -22 10 -53 16 -70 7 -16 13 -48 15 -70 1 -22 5
-47 8 -55 3 -8 17 -91 31 -185 42 -262 45 -289 43 -305 -1 -8 2 -53 6 -100 4
-47 12 -132 17 -190 5 -58 14 -163 20 -235 15 -178 28 -244 95 -500 30 -112
64 -295 64 -340 0 -31 -13 -45 -83 -84 -66 -37 -131 -25 -304 55 -29 13 -54
24 -57 24 -9 0 -154 72 -196 97 -319 193 -580 448 -781 764 l-17 26 102 69
c147 98 340 293 440 444 118 179 189 345 233 545 26 121 24 358 -5 502 -12 62
-24 120 -28 130 -5 13 -3 15 12 9 11 -4 40 -10 65 -13z m-654 -338 c38 -115
43 -249 15 -370 -18 -74 -31 -105 -76 -171 -79 -117 -298 -324 -320 -302 -8 8
-26 98 -37 188 -25 209 19 417 121 580 44 71 123 165 180 214 l46 39 22 -49
c12 -27 34 -85 49 -129z"/>
<path d="M10923 623 c9 -2 25 -2 35 0 9 3 1 5 -18 5 -19 0 -27 -2 -17 -5z"/>
</g>
</svg>
